<svg xmlns="http://www.w3.org/2000/svg" version="1.1" xmlns:xlink="http://www.w3.org/1999/xlink" xmlns:svgjs="http://svgjs.dev/svgjs" width="1000" height="1000" viewBox="0 0 1000 1000"><rect width="1000" height="1000" fill="#ffffff"></rect><g transform="matrix(0.7,0,0,0.7,149.575757590234,370.25486678400273)"><svg viewBox="0 0 396 147" data-background-color="#ffffff" preserveAspectRatio="xMidYMid meet" height="371" width="1000" xmlns="http://www.w3.org/2000/svg" xmlns:xlink="http://www.w3.org/1999/xlink"><g id="tight-bounds" transform="matrix(1,0,0,1,0.2400000081894973,-0.059358556982687105)"><svg viewBox="0 0 395.52 147.11871711396537" height="147.11871711396537" width="395.52"><g><svg viewBox="0 0 734.8969423297449 273.3543066508087" height="147.11871711396537" width="395.52"><g><rect width="15.22636962634868" height="273.3543066508087" x="284.2909663516981" y="0" fill="#bf2c26" opacity="1" stroke-width="0" stroke="transparent" fill-opacity="1" class="rect-o-0" data-fill-palette-color="primary" rx="1%" id="o-0" data-palette-color="#bf2c26"></rect></g><g transform="matrix(1,0,0,1,339.3769423297449,22.779525554234056)"><svg viewBox="0 0 395.52 227.7952555423406" height="227.7952555423406" width="395.52"><g><svg viewBox="0 0 395.52 227.7952555423406" height="227.7952555423406" width="395.52"><g><svg viewBox="0 0 395.52 168.84226415094338" height="168.84226415094338" width="395.52"><g transform="matrix(1,0,0,1,0,0)"><svg width="395.52" viewBox="3 -35.599998474121094 84.79000091552734 36.19999694824219" height="168.84226415094338" data-palette-color="#bf2c26"><path d="M3-24.7L8.8-24.7 9.7-19.8 10.4-19.15 10.4 0 3 0 3-24.7ZM19.55-25.35L20.85-25.35 20.15-18.5 18.1-18.5Q16.35-18.5 14.45-18 12.55-17.5 9.65-16.5L9.65-16.5 9.15-20.65Q11.75-22.95 14.4-24.15 17.05-25.35 19.55-25.35L19.55-25.35ZM24.55-24.7L31.9-24.7 31.9 0 24.55 0 24.55-24.7ZM26.65-35.6L29.85-35.6Q32.05-35.6 32.05-33.35L32.05-33.35 32.05-30.7Q32.05-28.45 29.85-28.45L29.85-28.45 26.65-28.45Q24.45-28.45 24.45-30.7L24.45-30.7 24.45-33.35Q24.45-35.6 26.65-35.6L26.65-35.6ZM49.65-25.35L49.65-25.35Q51-25.35 52.59-25.23 54.2-25.1 55.82-24.78 57.45-24.45 58.8-23.85L58.8-23.85 58-19.2Q56-19.25 54.17-19.3 52.34-19.35 50.9-19.35L50.9-19.35Q48.65-19.35 47.35-18.75 46.05-18.15 45.47-16.63 44.9-15.1 44.9-12.4L44.9-12.4Q44.9-9.65 45.47-8.1 46.05-6.55 47.35-5.95 48.65-5.35 50.9-5.35L50.9-5.35Q51.7-5.35 52.95-5.4 54.2-5.45 55.65-5.53 57.1-5.6 58.5-5.8L58.5-5.8 59.2-1.1Q57.2-0.2 54.65 0.2 52.09 0.6 49.6 0.6L49.6 0.6Q45 0.6 42.27-0.68 39.55-1.95 38.35-4.8 37.15-7.65 37.15-12.4L37.15-12.4Q37.15-17.15 38.37-20 39.6-22.85 42.35-24.1 45.1-25.35 49.65-25.35ZM80.79-25.35L80.79-25.35Q87.79-25.35 87.79-18.5L87.79-18.5 87.79 0 80.34 0 80.34-16.2Q80.34-17.85 79.77-18.48 79.19-19.1 77.74-19.1L77.74-19.1Q76.14-19.1 74.44-18.5 72.74-17.9 70.24-16.55L70.24-16.55 69.59-20.4Q72.34-22.8 75.19-24.08 78.04-25.35 80.79-25.35ZM63.59-35L70.99-35 71.04-26.45Q71.04-24.5 70.82-22.75 70.59-21 70.29-19.8L70.29-19.8 70.99-19.15 70.99 0 63.59 0 63.59-35Z" opacity="1" transform="matrix(1,0,0,1,0,0)" fill="#bf2c26" class="undefined-text-0" data-fill-palette-color="primary" id="text-0"></path></svg></g></svg></g><g transform="matrix(1,0,0,1,0,208.7018705026415)"><svg viewBox="0 0 300.59520000000003 19.093385039699122" height="19.093385039699122" width="300.59520000000003"><g transform="matrix(1,0,0,1,0,0)"><svg width="300.59520000000003" viewBox="2.9000000953674316 -32.25 598.1900024414062 38" height="19.093385039699122" data-palette-color="#f75952"><path d="M8.6 0Q7.05 0 5.25 0.25 3.45 0.5 2.9 0.6L2.9 0.6 3.2-1.7Q5.5-2.15 6.3-3.03 7.1-3.9 7.1-6L7.1-6 7.15-27Q7.15-28.6 6.78-29.15 6.4-29.7 5.3-29.7L5.3-29.7Q4.8-29.7 4.3-29.65 3.8-29.6 3.6-29.6L3.6-29.6 3.5-29.8 3.85-32Q4.45-31.95 6.1-31.9 7.75-31.85 9.4-31.85L9.4-31.85Q11.1-31.85 12.88-31.93 14.65-32 15.3-32.05L15.3-32.05Q20.05-32.05 22.6-30.08 25.15-28.1 25.15-24.45L25.15-24.45Q25.15-21.95 23.63-19.95 22.1-17.95 19.35-16.75L19.35-16.75Q23-15.95 25.05-13.95 27.1-11.95 27.1-9.15L27.1-9.15Q27.1-6.6 25.48-4.38 23.85-2.15 21.15-0.83 18.45 0.5 15.35 0.5L15.35 0.5Q14 0.5 12.25 0.25L12.25 0.25Q9.4 0 8.6 0L8.6 0ZM10.95-17.55Q11.7-17.5 13.48-17.35 15.25-17.2 16.4-17.15L16.4-17.15Q16.4-17 17.7-17.68 19-18.35 20.05-19.78 21.1-21.2 21.1-23.6L21.1-23.6Q21.1-26.8 18.95-28.35 16.8-29.9 12.3-29.9L12.3-29.9Q11.8-29.9 11.63-29.68 11.45-29.45 11.4-28.75L11.4-28.75Q11.1-23.95 10.95-17.55L10.95-17.55ZM10.85-14.9L10.65-5.55Q10.65-3.65 11.95-2.85 13.25-2.05 16.35-2.05L16.35-2.05Q19.35-2.05 21.08-3.73 22.8-5.4 22.8-8.25L22.8-8.25Q22.8-10.95 21.1-12.68 19.4-14.4 16.05-15L16.05-15 10.85-14.9ZM32.55 0.4L32.8-1.7Q34.65-1.9 35.3-2.6 35.95-3.3 35.95-5L35.95-5 36-20.85Q36-22.1 35.7-22.53 35.4-22.95 34.5-22.95L34.5-22.95 33.15-22.9 33.05-23.1 33.35-25Q33.95-25 35.7-24.95 37.45-24.9 39.5-24.9L39.5-24.9Q47.85-24.9 51.85-25.35L51.85-25.35 52-25.1Q51.9-24.55 51.55-22.6 51.2-20.65 51.05-18.4L51.05-18.4 48.65-18.2Q48.65-18.4 48.7-18.88 48.75-19.35 48.75-19.85L48.75-19.85Q48.75-21.15 48.37-21.68 48-22.2 46.82-22.38 45.65-22.55 42.75-22.55L42.75-22.55Q41.4-22.55 40.9-22.48 40.4-22.4 40.25-22.13 40.1-21.85 40.05-21.1L40.05-21.1 39.75-14 43.85-13.95Q44.75-13.95 46.5-14.13 48.25-14.3 48.8-14.35L48.8-14.35 49-14.1 48.4-11.5Q47.85-11.5 46.22-11.55 44.6-11.6 42.8-11.6L42.8-11.6Q41.4-11.6 39.65-11.35L39.65-11.35Q39.5-7.55 39.5-4.5L39.5-4.5Q39.5-3.35 39.67-2.9 39.85-2.45 40.47-2.3 41.1-2.15 42.55-2.15L42.55-2.15Q45.8-2.15 47.2-2.45 48.6-2.75 49.17-3.68 49.75-4.6 50.1-6.85L50.1-6.85 52.3-7.05 52.5-6.8Q52.35-6.25 51.97-4.23 51.6-2.2 51.4 0L51.4 0 51.1 0.25Q49.75 0.2 45.5 0.1 41.25 0 38.6 0L38.6 0Q36.55 0 34.8 0.18 33.05 0.35 32.55 0.4L32.55 0.4ZM64.8 0.45Q63.05 0.45 61.57 0.15 60.1-0.15 59.22-0.48 58.35-0.8 58.15-0.9L58.15-0.9 57.9-1.35Q57.95-1.6 58.07-2.48 58.2-3.35 58.32-4.93 58.45-6.5 58.45-8.1L58.45-8.1 60.7-8.3Q60.7-5.6 61.12-4.28 61.55-2.95 62.6-2.45 63.65-1.95 65.8-1.95L65.8-1.95Q68.2-1.95 69.67-3 71.15-4.05 71.15-5.8L71.15-5.8Q71.15-6.95 70.32-7.83 69.5-8.7 68.42-9.3 67.34-9.9 65-11.05L65-11.05Q61.8-12.6 60.07-14.1 58.35-15.6 58.35-17.95L58.35-17.95Q58.35-20.05 59.62-21.75 60.9-23.45 63.15-24.4 65.4-25.35 68.15-25.35L68.15-25.35Q69.8-25.35 71.25-25.15 72.7-24.95 73.55-24.73 74.4-24.5 74.59-24.4L74.59-24.4 74.8-24.05Q74.7-23.5 74.34-21.58 74-19.65 73.84-17.45L73.84-17.45 71.9-17.25 71.59-17.45Q71.59-17.6 71.65-18.07 71.7-18.55 71.7-19.25L71.7-19.25Q71.7-21.2 70.67-21.98 69.65-22.75 67.05-22.75L67.05-22.75Q64.95-22.75 63.57-21.78 62.2-20.8 62.2-19.3L62.2-19.3Q62.2-17.8 63.57-16.75 64.95-15.7 67.75-14.35L67.75-14.35Q70.2-13.2 71.67-12.35 73.15-11.5 74.2-10.2 75.25-8.9 75.25-7.2L75.25-7.2Q75.25-4.95 73.92-3.23 72.59-1.5 70.22-0.53 67.84 0.45 64.8 0.45L64.8 0.45ZM83.69 0.2L84.04-1.8Q86.04-1.95 86.87-2.3 87.69-2.65 87.92-3.48 88.14-4.3 88.14-6.35L88.14-6.35 88.14-22.9Q84.99-22.8 83.89-22.55 82.79-22.3 82.27-21.38 81.74-20.45 81.39-17.9L81.39-17.9 79.04-17.75Q79.14-18.4 79.37-20.63 79.59-22.85 79.64-25L79.64-25 80.04-25.35 83.59-24.95 96.34-24.95 99.99-25.35 100.39-25Q100.44-22.8 100.64-20.65 100.84-18.5 100.94-17.9L100.94-17.9 98.64-17.75Q98.24-20.35 97.72-21.33 97.19-22.3 96.17-22.55 95.14-22.8 92.24-22.9L92.24-22.9Q91.99-20.5 91.79-14.93 91.59-9.35 91.59-4.65L91.59-4.65Q91.59-3.2 92.14-2.6 92.69-2 93.94-2L93.94-2Q94.84-2 95.42-2.05 95.99-2.1 96.14-2.1L96.14-2.1 96.29-1.95 95.94 0.15Q95.24 0.15 93.34 0.08 91.44 0 89.64 0L89.64 0Q87.84 0 86.09 0.08 84.34 0.15 83.69 0.2L83.69 0.2ZM140.29 2Q135.94-4.75 131.81-10.88 127.69-17 125.04-20.78 122.39-24.55 121.69-25.55L121.69-25.55 121.44-25.55 121.19-4.2Q121.19-3.1 121.54-2.65 121.89-2.2 122.74-2.2L122.74-2.2 125.29-2.25 125.39-2.05 124.94 0.2Q124.39 0.15 122.69 0.08 120.99 0 119.64 0L119.64 0Q118.39 0 116.91 0.18 115.44 0.35 114.99 0.4L114.99 0.4 115.24-1.9Q116.79-2.1 117.54-2.83 118.29-3.55 118.34-5.05L118.34-5.05 118.99-26.9Q118.99-28.45 118.06-29.1 117.14-29.75 114.64-30L114.64-30 114.49-30.25 114.89-32.1Q115.34-32.05 116.84-31.95 118.34-31.85 119.19-31.85L119.19-31.85Q120.24-31.85 121.24-31.93 122.24-32 122.54-32.05L122.54-32.05Q126.24-26.3 129.96-20.8 133.69-15.3 136.19-11.75 138.69-8.2 139.34-7.25L139.34-7.25 139.59-7.25 139.59-27.5Q139.59-29.65 137.94-29.65L137.94-29.65 136.04-29.6 135.94-29.8 136.39-32.05Q136.89-32 138.29-31.93 139.69-31.85 141.14-31.85L141.14-31.85Q142.44-31.85 144.01-32.02 145.59-32.2 146.09-32.25L146.09-32.25 145.84-29.95Q144.09-29.7 143.29-28.98 142.49-28.25 142.44-26.8L142.44-26.8 141.74 1.3 140.29 2ZM150.44 0.4L150.69-1.7Q152.54-1.9 153.19-2.6 153.84-3.3 153.84-5L153.84-5 153.89-20.85Q153.89-22.1 153.59-22.53 153.29-22.95 152.39-22.95L152.39-22.95 151.04-22.9 150.94-23.1 151.24-25Q151.84-25 153.59-24.95 155.34-24.9 157.39-24.9L157.39-24.9Q165.74-24.9 169.74-25.35L169.74-25.35 169.89-25.1Q169.79-24.55 169.44-22.6 169.09-20.65 168.94-18.4L168.94-18.4 166.54-18.2Q166.54-18.4 166.59-18.88 166.64-19.35 166.64-19.85L166.64-19.85Q166.64-21.15 166.26-21.68 165.89-22.2 164.71-22.38 163.54-22.55 160.64-22.55L160.64-22.55Q159.29-22.55 158.79-22.48 158.29-22.4 158.14-22.13 157.99-21.85 157.94-21.1L157.94-21.1 157.64-14 161.74-13.95Q162.64-13.95 164.39-14.13 166.14-14.3 166.69-14.35L166.69-14.35 166.89-14.1 166.29-11.5Q165.74-11.5 164.11-11.55 162.49-11.6 160.69-11.6L160.69-11.6Q159.29-11.6 157.54-11.35L157.54-11.35Q157.39-7.55 157.39-4.5L157.39-4.5Q157.39-3.35 157.56-2.9 157.74-2.45 158.36-2.3 158.99-2.15 160.44-2.15L160.44-2.15Q163.69-2.15 165.09-2.45 166.49-2.75 167.06-3.68 167.64-4.6 167.99-6.85L167.99-6.85 170.19-7.05 170.39-6.8Q170.24-6.25 169.86-4.23 169.49-2.2 169.29 0L169.29 0 168.99 0.25Q167.64 0.2 163.39 0.1 159.14 0 156.49 0L156.49 0Q154.44 0 152.69 0.18 150.94 0.35 150.44 0.4L150.44 0.4ZM182.68 0.45Q180.93 0.45 179.46 0.15 177.98-0.15 177.11-0.48 176.23-0.8 176.03-0.9L176.03-0.9 175.78-1.35Q175.83-1.6 175.96-2.48 176.08-3.35 176.21-4.93 176.33-6.5 176.33-8.1L176.33-8.1 178.58-8.3Q178.58-5.6 179.01-4.28 179.43-2.95 180.48-2.45 181.53-1.95 183.68-1.95L183.68-1.95Q186.08-1.95 187.56-3 189.03-4.05 189.03-5.8L189.03-5.8Q189.03-6.95 188.21-7.83 187.38-8.7 186.31-9.3 185.23-9.9 182.88-11.05L182.88-11.05Q179.68-12.6 177.96-14.1 176.23-15.6 176.23-17.95L176.23-17.95Q176.23-20.05 177.51-21.75 178.78-23.45 181.03-24.4 183.28-25.35 186.03-25.35L186.03-25.35Q187.68-25.35 189.13-25.15 190.58-24.95 191.43-24.73 192.28-24.5 192.48-24.4L192.48-24.4 192.68-24.05Q192.58-23.5 192.23-21.58 191.88-19.65 191.73-17.45L191.73-17.45 189.78-17.25 189.48-17.45Q189.48-17.6 189.53-18.07 189.58-18.55 189.58-19.25L189.58-19.25Q189.58-21.2 188.56-21.98 187.53-22.75 184.93-22.75L184.93-22.75Q182.83-22.75 181.46-21.78 180.08-20.8 180.08-19.3L180.08-19.3Q180.08-17.8 181.46-16.75 182.83-15.7 185.63-14.35L185.63-14.35Q188.08-13.2 189.56-12.35 191.03-11.5 192.08-10.2 193.13-8.9 193.13-7.2L193.13-7.2Q193.13-4.95 191.81-3.23 190.48-1.5 188.11-0.53 185.73 0.45 182.68 0.45L182.68 0.45ZM201.58 0.2L201.93-1.8Q203.93-1.95 204.76-2.3 205.58-2.65 205.81-3.48 206.03-4.3 206.03-6.35L206.03-6.35 206.03-22.9Q202.88-22.8 201.78-22.55 200.68-22.3 200.16-21.38 199.63-20.45 199.28-17.9L199.28-17.9 196.93-17.75Q197.03-18.4 197.26-20.63 197.48-22.85 197.53-25L197.53-25 197.93-25.35 201.48-24.95 214.23-24.95 217.88-25.35 218.28-25Q218.33-22.8 218.53-20.65 218.73-18.5 218.83-17.9L218.83-17.9 216.53-17.75Q216.13-20.35 215.61-21.33 215.08-22.3 214.06-22.55 213.03-22.8 210.13-22.9L210.13-22.9Q209.88-20.5 209.68-14.93 209.48-9.35 209.48-4.65L209.48-4.65Q209.48-3.2 210.03-2.6 210.58-2 211.83-2L211.83-2Q212.73-2 213.31-2.05 213.88-2.1 214.03-2.1L214.03-2.1 214.18-1.95 213.83 0.15Q213.13 0.15 211.23 0.08 209.33 0 207.53 0L207.53 0Q205.73 0 203.98 0.08 202.23 0.15 201.58 0.2L201.58 0.2ZM232.38 0.45L232.63-1.6Q234.53-1.95 235.15-2.63 235.78-3.3 235.78-5L235.78-5 235.83-20.85Q235.83-22.1 235.53-22.53 235.23-22.95 234.33-22.95L234.33-22.95 232.98-22.9 232.88-23.1 233.18-25Q233.78-25 235.53-24.95 237.28-24.9 239.33-24.9L239.33-24.9Q247.08-24.9 250.83-25.35L250.83-25.35 251.03-25.1Q250.93-24.55 250.58-22.55 250.23-20.55 250.08-18.3L250.08-18.3 247.68-18.15Q247.68-18.35 247.73-18.85 247.78-19.35 247.78-19.85L247.78-19.85Q247.78-21.15 247.45-21.68 247.13-22.2 246.08-22.38 245.03-22.55 242.58-22.55L242.58-22.55Q241.23-22.55 240.73-22.48 240.23-22.4 240.08-22.13 239.93-21.85 239.88-21.1L239.88-21.1 239.53-13.35 243.68-13.3Q244.48-13.3 245.98-13.48 247.48-13.65 247.98-13.7L247.98-13.7 248.18-13.45 247.63-10.8Q247.13-10.8 245.68-10.85 244.23-10.9 242.63-10.9L242.63-10.9Q241.23-10.9 239.48-10.65L239.48-10.65 239.33-4.75Q239.33-3.2 239.68-2.68 240.03-2.15 241.13-2.15L241.13-2.15Q241.93-2.15 242.78-2.23 243.63-2.3 243.93-2.3L243.93-2.3 244.08-2.05 243.73 0.15Q243.08 0.1 241.25 0.05 239.43 0 237.53 0L237.53 0Q236.08 0 234.48 0.18 232.88 0.35 232.38 0.45L232.38 0.45ZM265.02 0.45Q261.62 0.45 259-1.05 256.37-2.55 254.95-5.3 253.52-8.05 253.52-11.65L253.52-11.65Q253.52-15.55 255.3-18.68 257.07-21.8 260.15-23.58 263.22-25.35 267.02-25.35L267.02-25.35Q270.47-25.35 273.12-23.85 275.77-22.35 277.22-19.63 278.67-16.9 278.67-13.3L278.67-13.3Q278.67-9.4 276.9-6.28 275.12-3.15 272-1.35 268.87 0.45 265.02 0.45L265.02 0.45ZM266.22-1.95Q269.87-1.95 272.12-4.58 274.37-7.2 274.37-11.55L274.37-11.55Q274.37-14.85 273.3-17.35 272.22-19.85 270.25-21.2 268.27-22.55 265.67-22.55L265.67-22.55Q262.12-22.55 259.95-19.95 257.77-17.35 257.77-13L257.77-13Q257.77-9.7 258.82-7.2 259.87-4.7 261.8-3.33 263.72-1.95 266.22-1.95L266.22-1.95ZM302.27 0.6Q301.17 0.6 300.02-0.38 298.87-1.35 297.92-3.05L297.92-3.05 293.72-10.4 290.47-10.4 290.37-5.05Q290.37-3.6 290.57-2.98 290.77-2.35 291.35-2.15 291.92-1.95 293.32-1.9L293.32-1.9 293.42-1.75 293.02 0.15Q292.42 0.1 290.85 0.08 289.27 0.05 287.67 0.05L287.67 0.05Q286.12 0.05 284.97 0.1 283.82 0.15 283.42 0.2L283.42 0.2 283.77-1.85Q285.62-2.1 286.22-2.7 286.82-3.3 286.82-4.95L286.82-4.95 286.87-20.9Q286.87-22.1 286.57-22.53 286.27-22.95 285.42-22.95L285.42-22.95 284.02-22.9 283.87-23.1 284.17-25Q284.67-25 286.07-24.95 287.47-24.9 288.87-24.9L288.87-24.9Q290.32-24.9 291.97-24.98 293.62-25.05 294.22-25.05L294.22-25.05Q298.27-25.05 300.57-23.38 302.87-21.7 302.87-18.75L302.87-18.75Q302.87-16.45 301.32-14.5 299.77-12.55 296.97-11.3L296.97-11.3 301.22-4.9Q302.42-3.1 303.52-2.35 304.62-1.6 306.17-1.6L306.17-1.6 306.37-1.35 306.12 0.2 302.27 0.6ZM294.62-12.6Q295.57-13 296.3-13.38 297.02-13.75 297.92-14.95 298.82-16.15 298.82-18.05L298.82-18.05Q298.82-22.9 291.67-22.9L291.67-22.9Q291.27-22.9 291.12-22.73 290.97-22.55 290.97-22L290.97-22Q290.57-15.9 290.57-13L290.57-13 294.62-12.6ZM323.42 0.45L323.72-1.6Q325.22-1.85 325.92-2.25 326.62-2.65 326.82-3.4 327.02-4.15 327.02-5.65L327.02-5.65 327.02-7.2Q327.02-8.35 326.77-9.25 326.52-10.15 325.82-11.5L325.82-11.5 322.07-18.7Q321.12-20.5 320.62-21.23 320.12-21.95 319.32-22.4 318.52-22.85 317.02-23L317.02-23 316.92-23.2 317.22-25Q317.67-25 319.04-24.95 320.42-24.9 321.92-24.9L321.92-24.9Q323.32-24.9 325.32-25.03 327.32-25.15 327.92-25.2L327.92-25.2 328.07-24.9 327.92-23.25Q326.22-23.15 325.59-22.88 324.97-22.6 324.97-21.9L324.97-21.9Q324.97-21.25 326.74-17.6 328.52-13.95 329.27-12.5L329.27-12.5 329.52-12.5 333.82-20.2Q334.47-21.35 334.47-22.1L334.47-22.1Q334.47-23.05 332.02-23.2L332.02-23.2 331.92-23.35 332.17-25.15Q332.47-25.15 334.17-25.03 335.87-24.9 336.97-24.9L336.97-24.9Q338.27-24.9 339.37-24.95 340.47-25 340.87-25.05L340.87-25.05 341.02-24.75 340.77-23.05Q339.42-22.75 338.67-22.25 337.92-21.75 337.34-20.95 336.77-20.15 335.47-18L335.47-18 331.42-11.1Q330.87-10.05 330.72-8.8 330.57-7.55 330.57-4.3L330.57-4.3Q330.57-3 330.97-2.5 331.37-2 332.42-2L332.42-2Q333.07-2 333.64-2.05 334.22-2.1 334.42-2.1L334.42-2.1 334.52-1.95 334.12 0.15Q333.52 0.1 331.87 0.05 330.22 0 328.52 0L328.52 0Q327.22 0 325.57 0.18 323.92 0.35 323.42 0.45L323.42 0.45ZM353.36 0.45Q349.96 0.45 347.34-1.05 344.71-2.55 343.29-5.3 341.86-8.05 341.86-11.65L341.86-11.65Q341.86-15.55 343.64-18.68 345.41-21.8 348.49-23.58 351.56-25.35 355.36-25.35L355.36-25.35Q358.81-25.35 361.46-23.85 364.11-22.35 365.56-19.63 367.01-16.9 367.01-13.3L367.01-13.3Q367.01-9.4 365.24-6.28 363.46-3.15 360.34-1.35 357.21 0.45 353.36 0.45L353.36 0.45ZM354.56-1.95Q358.21-1.95 360.46-4.58 362.71-7.2 362.71-11.55L362.71-11.55Q362.71-14.85 361.64-17.35 360.56-19.85 358.59-21.2 356.61-22.55 354.01-22.55L354.01-22.55Q350.46-22.55 348.29-19.95 346.11-17.35 346.11-13L346.11-13Q346.11-9.7 347.16-7.2 348.21-4.7 350.14-3.33 352.06-1.95 354.56-1.95L354.56-1.95ZM382.91 0.45Q378.46 0.45 376.14-1.75 373.81-3.95 373.81-8.1L373.81-8.1 373.81-20.85Q373.81-22.1 373.51-22.53 373.21-22.95 372.31-22.95L372.31-22.95 370.96-22.9 370.86-23.05 371.16-25Q371.71-25 373.16-24.95 374.61-24.9 376.11-24.9L376.11-24.9Q377.21-24.9 378.66-25.03 380.11-25.15 380.56-25.2L380.56-25.2 380.36-23.2Q378.91-23 378.41-22.55 377.91-22.1 377.81-21L377.81-21 377.51-9.55Q377.51-6 379.16-4.08 380.81-2.15 383.91-2.15L383.91-2.15Q387.06-2.15 388.69-3.73 390.31-5.3 390.31-8.3L390.31-8.3Q390.31-11.4 390.24-15.33 390.16-19.25 390.11-20.85L390.11-20.85Q390.01-22.2 389.76-22.58 389.51-22.95 388.66-22.95L388.66-22.95 386.96-22.9 386.91-23.05 387.21-25Q387.71-25 389.09-24.95 390.46-24.9 391.86-24.9L391.86-24.9Q393.01-24.9 394.34-25.03 395.66-25.15 396.06-25.2L396.06-25.2 395.91-23.2Q394.16-22.95 393.66-22.55 393.16-22.15 393.16-21.05L393.16-21.05 393.16-8.25Q393.16-4.1 390.49-1.83 387.81 0.45 382.91 0.45L382.91 0.45ZM419.36 0.6Q418.26 0.6 417.11-0.38 415.96-1.35 415.01-3.05L415.01-3.05 410.81-10.4 407.56-10.4 407.46-5.05Q407.46-3.6 407.66-2.98 407.86-2.35 408.43-2.15 409.01-1.95 410.41-1.9L410.41-1.9 410.51-1.75 410.11 0.15Q409.51 0.1 407.93 0.08 406.36 0.05 404.76 0.05L404.76 0.05Q403.21 0.05 402.06 0.1 400.91 0.15 400.51 0.2L400.51 0.2 400.86-1.85Q402.71-2.1 403.31-2.7 403.91-3.3 403.91-4.95L403.91-4.95 403.96-20.9Q403.96-22.1 403.66-22.53 403.36-22.95 402.51-22.95L402.51-22.95 401.11-22.9 400.96-23.1 401.26-25Q401.76-25 403.16-24.95 404.56-24.9 405.96-24.9L405.96-24.9Q407.41-24.9 409.06-24.98 410.71-25.05 411.31-25.05L411.31-25.05Q415.36-25.05 417.66-23.38 419.96-21.7 419.96-18.75L419.96-18.75Q419.96-16.45 418.41-14.5 416.86-12.55 414.06-11.3L414.06-11.3 418.31-4.9Q419.51-3.1 420.61-2.35 421.71-1.6 423.26-1.6L423.26-1.6 423.46-1.35 423.21 0.2 419.36 0.6ZM411.71-12.6Q412.66-13 413.38-13.38 414.11-13.75 415.01-14.95 415.91-16.15 415.91-18.05L415.91-18.05Q415.91-22.9 408.76-22.9L408.76-22.9Q408.36-22.9 408.21-22.73 408.06-22.55 408.06-22L408.06-22Q407.66-15.9 407.66-13L407.66-13 411.71-12.6ZM437.05 0.3L437.35-1.75Q439.1-2.05 439.68-2.68 440.25-3.3 440.25-4.95L440.25-4.95 440.3-20.85Q440.3-22.1 440-22.53 439.7-22.95 438.85-22.95L438.85-22.95 437.45-22.9 437.3-23.1 437.6-25Q437.85-25 439.08-24.95 440.3-24.9 442.3-24.9L442.3-24.9Q443.65-24.9 445.35-24.98 447.05-25.05 447.75-25.05L447.75-25.05Q452.25-25.05 454.53-23.15 456.8-21.25 456.8-17.95L456.8-17.95Q456.8-15.75 455.45-13.75 454.1-11.75 451.93-10.53 449.75-9.3 447.3-9.3L447.3-9.3 443.85-9.3 443.8-5.8Q443.8-4.05 443.93-3.28 444.05-2.5 444.4-2.25 444.75-2 445.6-2L445.6-2Q446.25-2 446.9-2.05 447.55-2.1 447.75-2.1L447.75-2.1 447.85-1.9 447.45 0.1Q447 0.1 445.8 0.05 444.6 0 443.35 0L443.35 0Q441.7 0 439.4 0.1 437.1 0.2 437.05 0.3L437.05 0.3ZM448.1-11.45Q452.75-12.2 452.75-17.25L452.75-17.25Q452.75-20.05 451-21.38 449.25-22.7 445.45-22.7L445.45-22.7Q444.75-22.7 444.6-22.63 444.45-22.55 444.4-22.1L444.4-22.1Q444-15.75 443.95-12L443.95-12 448.1-11.45ZM479.65 0.6Q478.55 0.6 477.4-0.38 476.25-1.35 475.3-3.05L475.3-3.05 471.1-10.4 467.85-10.4 467.75-5.05Q467.75-3.6 467.95-2.98 468.15-2.35 468.73-2.15 469.3-1.95 470.7-1.9L470.7-1.9 470.8-1.75 470.4 0.15Q469.8 0.1 468.23 0.08 466.65 0.05 465.05 0.05L465.05 0.05Q463.5 0.05 462.35 0.1 461.2 0.15 460.8 0.2L460.8 0.2 461.15-1.85Q463-2.1 463.6-2.7 464.2-3.3 464.2-4.95L464.2-4.95 464.25-20.9Q464.25-22.1 463.95-22.53 463.65-22.95 462.8-22.95L462.8-22.95 461.4-22.9 461.25-23.1 461.55-25Q462.05-25 463.45-24.95 464.85-24.9 466.25-24.9L466.25-24.9Q467.7-24.9 469.35-24.98 471-25.05 471.6-25.05L471.6-25.05Q475.65-25.05 477.95-23.38 480.25-21.7 480.25-18.75L480.25-18.75Q480.25-16.45 478.7-14.5 477.15-12.55 474.35-11.3L474.35-11.3 478.6-4.9Q479.8-3.1 480.9-2.35 482-1.6 483.55-1.6L483.55-1.6 483.75-1.35 483.5 0.2 479.65 0.6ZM472-12.6Q472.95-13 473.68-13.38 474.4-13.75 475.3-14.95 476.2-16.15 476.2-18.05L476.2-18.05Q476.2-22.9 469.05-22.9L469.05-22.9Q468.65-22.9 468.5-22.73 468.35-22.55 468.35-22L468.35-22Q467.95-15.9 467.95-13L467.95-13 472-12.6ZM497.6 0.45Q494.2 0.45 491.57-1.05 488.95-2.55 487.52-5.3 486.1-8.05 486.1-11.65L486.1-11.65Q486.1-15.55 487.87-18.68 489.65-21.8 492.72-23.58 495.8-25.35 499.6-25.35L499.6-25.35Q503.05-25.35 505.7-23.85 508.35-22.35 509.8-19.63 511.25-16.9 511.25-13.3L511.25-13.3Q511.25-9.4 509.47-6.28 507.7-3.15 504.57-1.35 501.45 0.45 497.6 0.45L497.6 0.45ZM498.8-1.95Q502.45-1.95 504.7-4.58 506.95-7.2 506.95-11.55L506.95-11.55Q506.95-14.85 505.87-17.35 504.8-19.85 502.82-21.2 500.85-22.55 498.25-22.55L498.25-22.55Q494.7-22.55 492.52-19.95 490.35-17.35 490.35-13L490.35-13Q490.35-9.7 491.4-7.2 492.45-4.7 494.37-3.33 496.3-1.95 498.8-1.95L498.8-1.95ZM515.44 5.75L514.64 4.35 514.75 4Q517.19 2.5 518.07 0.73 518.94-1.05 518.94-4.6L518.94-4.6 519-20.85Q519-22.1 518.69-22.5 518.39-22.9 517.5-22.9L517.5-22.9Q517-22.9 516.42-22.85 515.84-22.8 515.64-22.8L515.64-22.8 515.5-23 515.79-24.9 520.39-24.9Q521.69-24.9 523.37-25.05 525.04-25.2 525.54-25.25L525.54-25.25 525.34-23.2Q523.94-23 523.54-22.6 523.14-22.2 523.04-21L523.04-21Q522.54-9.35 522.54-4.35L522.54-4.35Q522.5-0.4 520.82 2 519.14 4.4 515.44 5.75L515.44 5.75ZM529.99 0.4L530.24-1.7Q532.09-1.9 532.74-2.6 533.39-3.3 533.39-5L533.39-5 533.44-20.85Q533.44-22.1 533.14-22.53 532.84-22.95 531.94-22.95L531.94-22.95 530.59-22.9 530.49-23.1 530.79-25Q531.39-25 533.14-24.95 534.89-24.9 536.94-24.9L536.94-24.9Q545.29-24.9 549.29-25.35L549.29-25.35 549.44-25.1Q549.34-24.55 548.99-22.6 548.64-20.65 548.49-18.4L548.49-18.4 546.09-18.2Q546.09-18.4 546.14-18.88 546.19-19.35 546.19-19.85L546.19-19.85Q546.19-21.15 545.82-21.68 545.44-22.2 544.27-22.38 543.09-22.55 540.19-22.55L540.19-22.55Q538.84-22.55 538.34-22.48 537.84-22.4 537.69-22.13 537.54-21.85 537.49-21.1L537.49-21.1 537.19-14 541.29-13.95Q542.19-13.95 543.94-14.13 545.69-14.3 546.24-14.35L546.24-14.35 546.44-14.1 545.84-11.5Q545.29-11.5 543.67-11.55 542.04-11.6 540.24-11.6L540.24-11.6Q538.84-11.6 537.09-11.35L537.09-11.35Q536.94-7.55 536.94-4.5L536.94-4.5Q536.94-3.35 537.12-2.9 537.29-2.45 537.92-2.3 538.54-2.15 539.99-2.15L539.99-2.15Q543.24-2.15 544.64-2.45 546.04-2.75 546.62-3.68 547.19-4.6 547.54-6.85L547.54-6.85 549.74-7.05 549.94-6.8Q549.79-6.25 549.42-4.23 549.04-2.2 548.84 0L548.84 0 548.54 0.25Q547.19 0.2 542.94 0.1 538.69 0 536.04 0L536.04 0Q533.99 0 532.24 0.18 530.49 0.35 529.99 0.4L529.99 0.4ZM565.99 0.45Q560.34 0.45 557.04-2.8 553.74-6.05 553.74-11.65L553.74-11.65Q553.74-15.6 555.56-18.73 557.39-21.85 560.66-23.6 563.94-25.35 568.09-25.35L568.09-25.35Q569.59-25.35 571.21-25.15 572.84-24.95 573.96-24.7 575.09-24.45 575.39-24.4L575.39-24.4 575.59-24.1Q575.54-23.85 575.34-22.93 575.14-22 574.89-20.5 574.64-19 574.54-17.3L574.54-17.3 572.04-17.15Q572.04-17.3 572.09-17.85 572.14-18.4 572.14-19.1L572.14-19.1Q572.14-22.6 566.54-22.6L566.54-22.6Q562.64-22.6 560.39-20.03 558.14-17.45 558.14-12.95L558.14-12.95Q558.14-7.95 560.51-5 562.89-2.05 566.89-2.05L566.89-2.05Q569.54-2.05 571.11-3.48 572.69-4.9 573.39-7.95L573.39-7.95 575.89-8.15Q575.74-7.55 575.36-5.45 574.99-3.35 574.84-1.5L574.84-1.5 574.54-1.1Q574.24-1 573.11-0.63 571.99-0.25 570.09 0.1 568.19 0.45 565.99 0.45L565.99 0.45ZM583.84 0.2L584.19-1.8Q586.19-1.95 587.01-2.3 587.84-2.65 588.06-3.48 588.29-4.3 588.29-6.35L588.29-6.35 588.29-22.9Q585.14-22.8 584.04-22.55 582.94-22.3 582.41-21.38 581.89-20.45 581.54-17.9L581.54-17.9 579.19-17.75Q579.29-18.4 579.51-20.63 579.74-22.85 579.79-25L579.79-25 580.19-25.35 583.74-24.95 596.49-24.95 600.14-25.35 600.54-25Q600.59-22.8 600.79-20.65 600.99-18.5 601.09-17.9L601.09-17.9 598.79-17.75Q598.39-20.35 597.86-21.33 597.34-22.3 596.31-22.55 595.29-22.8 592.39-22.9L592.39-22.9Q592.14-20.5 591.94-14.93 591.74-9.35 591.74-4.65L591.74-4.65Q591.74-3.2 592.29-2.6 592.84-2 594.09-2L594.09-2Q594.99-2 595.56-2.05 596.14-2.1 596.29-2.1L596.29-2.1 596.44-1.95 596.09 0.15Q595.39 0.15 593.49 0.08 591.59 0 589.79 0L589.79 0Q587.99 0 586.24 0.08 584.49 0.15 583.84 0.2L583.84 0.2Z" opacity="1" transform="matrix(1,0,0,1,0,0)" fill="#f75952" class="undefined-text-1" data-fill-palette-color="secondary" id="text-1"></path></svg></g></svg></g></svg></g></svg></g><g transform="matrix(1,0,0,1,0,37.84269197988456)"><svg viewBox="0 0 244.43135999999998 197.6689226910396" height="197.6689226910396" width="244.43135999999998"><g><svg xmlns="http://www.w3.org/2000/svg" xmlns:xlink="http://www.w3.org/1999/xlink" version="1.1" x="0" y="0" viewBox="0.2120000123977661 9.736001014709473 99.57599639892578 80.5260009765625" enable-background="new 0 0 100 100" xml:space="preserve" height="197.6689226910396" width="244.43135999999998" class="icon-icon-0" data-fill-palette-color="accent" id="icon-0"><path fill="#d02e28" d="M83.197 71.255l16.591 4.735-8.184-14.768-6.391-5.981 13.831 3.013-7.095-11.22-5.855-4.195 9.155-3.146-14.455-5.349 8.02-4.882-14.967-4.073-1.749-0.185 6.982-5.478-15.016-0.439c0 0 5.617-5.108 5.745-5.065 0.111 0.036-10.612-0.929-10.612-0.929l-9.911 3.568 3.642-6.869-11.251 2.412-6.071 4.579-0.228-1.249 0.769-5.998-9.618 3.391-4.249 5.744-2.982 9.877-5.927 4.055v4.95L0.212 49.963c0 0 5.898 8.415 5.94 8.456 0.04 0.042 7.094 0.248 7.094 0.248l0.165 4.619 3.095-4.619 5.404-0.042 3.505 4.29-5.032 4.206h-6.847l-2.723-3.794-0.124 3.794-1.98 0.248 0.715 8.043 1.844 3.672 1.546-2.435 2.949 4.251c0 0 1.073-3.879 1.237-3.838 0.166 0.041 4.001 4.744 4.001 4.744l0.909-4.538 2.35 1.28 3.548-4.786c0 0 8.027-3.874 8.156-3.876l15.646 19.579 20.275-8.396 21.386 9.193L83.197 71.255z" data-fill-palette-color="accent"></path></svg></g></svg></g></svg></g><defs></defs></svg><rect width="395.52" height="147.11871711396537" fill="none" stroke="none" visibility="hidden"></rect></g></svg></g></svg>